<svg width="484" height="116" viewBox="0 0 484 116" fill="none" xmlns="http://www.w3.org/2000/svg">
<path d="M0.5 53.5H10L14.5 48.5L19.5 53.5H33.5C33.8333 50.1667 35.2 44.5 38 48.5C40.8 52.5 44.5 51.8333 46 51L53 42.5L64.5 45.5L80 42.5L89.5 34.5L101 38L110.5 31.5L118 38H133L142.5 34.5L148 26.5L169 31.5L178 26.5C175.167 30.5 172.1 38.1 182.5 36.5C192.9 34.9 194.833 32.5 194.5 31.5H206.5L214 26.5L222.5 31.5L237 36.5L240 31.5C241.833 32.5 246.2 33.9 249 31.5C251.8 29.1 258.5 25.8333 261.5 24.5C259 25.8333 256.4 28.1 266 26.5C278.8 30.5 283 28.1667 283.5 26.5L299 24.5L306 29.5L318.5 26.5C318 29.8333 319 35.5 327 31.5C335 27.5 334.333 25.1667 333 24.5L338.5 26.5C339.333 23.1667 341.7 17.5 344.5 21.5C349.7 23.9 362.667 22.5 368.5 21.5L375 15.5L388 9.5L392 3.5L396 114L410.5 107L413.5 110C414.333 106.667 416.5 101.4 418.5 107C420.5 112.6 423.667 114 425 114L424.5 105.5L427 53L440.5 45.5V53C442.5 51.5 447.3 49.4 450.5 53C453.7 56.6 457.5 57.5 459 57.5C459.5 57.1667 461.5 56.4 465.5 56C469.5 55.6 471.167 48.8333 471.5 45.5L477 39L483 33.5" stroke="#003C78" stroke-opacity="0.5" stroke-width="2"/>
<circle cx="362.5" cy="21.5" r="6.5" fill="#68A5D6" stroke="#F8FEFF" stroke-width="2"/>
</svg>
